<?xml version="1.0" standalone="no"?>
<!DOCTYPE svg PUBLIC "-//W3C//DTD SVG 20010904//EN"
 "http://www.w3.org/TR/2001/REC-SVG-20010904/DTD/svg10.dtd">
<svg version="1.0" xmlns="http://www.w3.org/2000/svg"
 width="2000.000000pt" height="2000.000000pt" viewBox="0 0 2000.000000 2000.000000"
 preserveAspectRatio="xMidYMid meet">

<g transform="translate(0.000000,2000.000000) scale(0.100000,-0.100000)"
fill="#000000" stroke="none">
<path d="M15590 17465 l0 -1015 -134 0 -134 0 -4 -162 c-4 -140 -8 -171 -28
-222 -37 -96 -90 -141 -250 -210 -318 -138 -488 -241 -626 -380 -75 -76 -99
-108 -132 -177 -52 -108 -74 -193 -76 -299 l-1 -85 1428 -3 c1266 -2 1428 0
1433 13 4 8 1 59 -5 113 -43 365 -259 572 -866 832 -78 34 -111 54 -150 94
-72 73 -87 122 -94 321 l-6 160 -132 3 -133 3 0 1014 0 1015 -45 0 -45 0 0
-1015z"/>
<path d="M14455 14768 c-2 -7 -38 -128 -79 -268 -70 -240 -80 -300 -42 -260
13 15 156 493 156 524 0 19 -29 22 -35 4z"/>
<path d="M16736 14751 c-5 -8 115 -430 143 -503 12 -33 29 -44 37 -24 5 13
-120 451 -146 514 -10 23 -25 29 -34 13z"/>
<path d="M14068 14578 c-36 -84 -137 -315 -223 -513 -86 -198 -186 -427 -222
-508 -35 -81 -62 -155 -59 -163 8 -21 25 -17 35 9 5 12 33 78 64 147 46 106
430 985 488 1119 19 44 18 61 -4 61 -7 0 -42 -69 -79 -152z"/>
<path d="M17096 14722 c-2 -4 81 -203 185 -442 104 -239 235 -540 291 -667 91
-212 115 -252 132 -225 3 5 -78 199 -180 433 -102 233 -227 521 -279 639 -51
118 -98 227 -105 243 -13 26 -34 35 -44 19z"/>
<path d="M15095 14418 c-2 -7 -16 -101 -30 -208 -14 -107 -28 -207 -31 -223
-4 -19 -1 -29 11 -33 9 -4 18 -4 20 -2 5 5 65 437 65 465 0 17 -29 17 -35 1z"/>
<path d="M16576 14422 c-2 -4 25 -119 62 -255 55 -205 70 -247 84 -247 10 0
18 5 18 11 0 6 -29 119 -65 251 -36 131 -65 241 -65 244 0 7 -29 4 -34 -4z"/>
<path d="M6938 14003 c-16 -4 -18 -22 -18 -193 0 -170 2 -190 18 -199 18 -9
622 -14 647 -5 12 5 15 27 15 105 l0 99 413 -2 412 -3 3 -117 3 -117 -158 -3
-158 -3 0 -195 0 -195 158 -3 157 -3 0 -144 0 -145 -415 0 -415 0 0 118 c0 78
-4 122 -12 130 -19 19 -641 17 -657 -2 -8 -9 -11 -70 -9 -197 l3 -184 335 0
335 0 3 48 3 47 428 0 c382 0 430 2 435 16 3 9 6 83 6 165 l0 149 155 0 154 0
3 98 3 97 298 3 297 2 0 -753 c0 -415 -2 -756 -4 -758 -2 -2 -95 -3 -205 -1
l-200 3 -3 87 -3 87 -330 0 -330 0 -3 -197 -2 -198 335 0 335 0 0 90 0 90 223
2 222 3 0 790 0 790 -315 5 -315 5 -2 55 c-1 30 -2 65 -2 78 -1 22 -2 22 -156
22 l-155 0 -1 98 c-1 53 -1 111 0 129 1 22 -4 35 -18 42 -12 7 -165 11 -422
11 -222 0 -410 0 -416 0 -9 0 -13 21 -13 70 0 58 -3 71 -19 80 -19 10 -606 13
-643 3z m617 -198 l0 -160 -295 0 -295 0 -3 150 c-1 82 0 155 2 162 4 11 64
13 298 11 l293 -3 0 -160z m1192 -432 l-2 -158 -297 -3 -298 -2 0 160 0 160
300 0 300 0 -3 -157z m-1189 -434 l-3 -161 -280 1 c-154 1 -288 1 -297 1 -16
0 -18 14 -18 160 l0 160 300 0 300 0 -2 -161z m1372 -1099 l0 -160 -295 0
-295 0 0 160 0 160 295 0 295 0 0 -160z"/>
<path d="M13672 13019 c-294 -26 -619 -115 -1037 -281 -418 -168 -683 -306
-1010 -529 -245 -167 -585 -444 -585 -478 0 -10 17 -27 43 -41 23 -13 43 -24
44 -25 3 -1 20 -233 28 -370 17 -306 25 -580 25 -915 0 -385 5 -456 41 -595
102 -400 427 -791 974 -1172 123 -86 273 -180 371 -234 41 -23 74 -43 74 -46
0 -3 -29 -44 -64 -92 -196 -263 -331 -556 -497 -1073 -30 -92 -56 -168 -59
-168 -3 0 -4 359 -2 797 1 439 0 808 -3 821 l-5 22 -2355 0 c-1295 0 -2355 3
-2355 6 0 13 -211 918 -216 926 -7 11 -4701 10 -4708 -1 -3 -4 49 -242 115
-527 66 -285 183 -791 260 -1124 187 -805 327 -1411 464 -2005 273 -1179 326
-1399 337 -1407 7 -4 178 -8 381 -8 332 0 367 -2 367 -16 0 -9 -9 -55 -20
-103 -10 -47 -33 -153 -50 -236 -17 -82 -80 -379 -140 -660 -60 -280 -128
-598 -150 -705 -23 -107 -52 -245 -65 -307 -24 -117 -23 -149 9 -211 l17 -32
-890 0 c-744 0 -890 -2 -894 -14 -9 -22 -8 -370 1 -384 7 -10 1617 -12 8018
-10 l8009 3 0 200 0 200 -353 3 -353 2 6 33 c13 82 82 1002 110 1482 31 540
36 696 42 1270 9 913 -18 1301 -122 1750 -168 726 -524 1386 -1004 1865 -218
217 -411 360 -636 470 -123 60 -326 134 -450 164 l-70 17 8 107 c16 189 -3
367 -96 927 -25 149 -52 317 -61 375 -136 892 -248 1345 -427 1728 -187 400
-398 561 -789 602 -107 11 -145 11 -278 -1z m-1885 -1911 c12 -120 167 -156
375 -89 l98 32 102 -55 c125 -66 489 -239 651 -308 64 -28 119 -53 121 -57 2
-3 -82 -6 -187 -6 -216 0 -307 -15 -414 -65 -84 -39 -131 -76 -165 -129 -32
-51 -35 -82 -12 -105 17 -17 13 -19 -26 -16 -33 2 -273 50 -278 55 -2 2 6 13
17 24 30 30 26 52 -22 118 -92 125 -220 205 -338 211 l-67 4 -10 42 c-6 22
-14 73 -18 112 l-6 72 83 100 c46 55 86 98 88 96 2 -2 6 -19 8 -36z m3 -531
c25 -11 78 -54 118 -94 107 -108 99 -117 -45 -49 -142 68 -154 78 -178 155 -7
22 -5 23 27 16 18 -4 53 -17 78 -28z m1632 -79 c125 -61 228 -114 228 -118 0
-10 -194 -68 -265 -79 -107 -18 -314 -31 -494 -31 -180 1 -485 21 -497 33 -4
4 2 7 14 7 13 0 31 15 49 42 75 112 231 160 529 162 194 1 210 6 201 63 -3 18
-3 33 0 33 4 0 109 -50 235 -112z m-1723 -94 c64 -43 180 -87 271 -104 36 -6
75 -13 86 -16 19 -3 21 -11 23 -78 3 -137 -51 -210 -180 -241 -64 -16 -239
-19 -253 -4 -7 7 -56 386 -56 435 0 23 3 50 6 59 6 14 8 14 28 0 11 -8 45 -32
75 -51z m1987 -149 c15 -23 14 -27 -9 -77 -14 -29 -52 -86 -84 -127 l-59 -74
-120 2 c-202 4 -308 -32 -473 -163 -143 -112 -194 -140 -255 -140 -119 1 -209
60 -264 176 -38 79 -77 213 -87 296 l-7 62 49 -1 c26 0 134 -7 238 -14 420
-29 880 3 1003 70 38 20 49 19 68 -10z m336 -77 c141 -84 285 -181 397 -268
l94 -73 -7 -81 c-15 -174 -70 -351 -158 -501 -240 -412 -752 -1255 -758 -1248
-12 12 -263 564 -259 567 2 2 38 25 79 52 238 152 590 415 590 440 0 27 -31
13 -112 -52 -92 -74 -287 -214 -448 -321 -362 -241 -548 -333 -674 -333 -65 0
-68 3 -144 119 -73 113 -384 662 -379 668 1 0 31 4 67 8 162 17 273 34 283 44
24 24 -9 30 -98 15 -112 -18 -346 -29 -408 -20 -26 4 -59 17 -72 29 -25 22
-25 23 -10 77 39 149 139 761 130 801 -8 34 12 43 50 23 55 -29 105 -101 154
-226 65 -164 150 -277 246 -323 161 -79 756 -26 985 88 109 54 165 155 229
419 24 101 41 149 51 152 45 12 75 2 172 -56z m-448 -249 c55 -43 17 -109 -62
-109 -38 0 -82 35 -82 65 0 31 44 65 85 65 18 0 44 -9 59 -21z m-1544 -315 c0
-8 -4 -14 -10 -14 -5 0 -10 9 -10 21 0 11 5 17 10 14 6 -3 10 -13 10 -21z
m-4923 -304 c158 -679 583 -2512 633 -2730 39 -171 337 -1456 410 -1770 33
-139 60 -258 60 -262 0 -4 -47 -8 -105 -8 -100 0 -106 1 -115 23 -5 12 -32
121 -60 242 -27 121 -77 337 -110 480 -34 143 -74 316 -90 385 -35 153 -317
1371 -370 1600 -21 91 -53 226 -70 300 -33 146 -95 413 -311 1345 -76 330
-139 606 -139 613 0 10 25 12 107 10 l108 -3 52 -225z m4873 -1580 l0 -869
-119 -358 c-66 -197 -136 -398 -155 -448 l-35 -90 -3 1195 -3 1194 -35 8 c-19
4 -986 7 -2149 7 -1163 0 -2115 2 -2116 3 -1 2 -12 48 -25 103 -12 55 -25 106
-27 113 -4 9 466 12 2331 12 l2336 0 0 -870z m-4462 343 c2 -24 -2 -34 -17
-43 -31 -16 -61 3 -61 39 0 36 8 43 45 39 26 -3 30 -8 33 -35z m126 21 c11
-29 6 -53 -14 -64 -38 -21 -80 22 -60 61 13 24 65 26 74 3z m124 4 c19 -19 14
-56 -9 -68 -16 -9 -26 -8 -45 5 -27 17 -29 27 -14 56 12 21 50 25 68 7z m936
-10 c8 -13 8 -23 0 -35 -9 -15 -28 -19 -104 -21 -92 -3 -120 5 -120 34 0 7 7
20 16 29 24 24 192 18 208 -7z m554 13 c8 -5 12 -21 10 -37 l-3 -29 -219 -3
c-220 -2 -246 1 -246 34 0 7 7 20 16 28 13 14 47 16 222 16 114 0 213 -4 220
-9z m184 -16 c10 -22 9 -29 -9 -46 -26 -26 -60 -18 -69 17 -13 52 56 77 78 29z
m128 6 c15 -29 13 -39 -14 -56 -20 -14 -28 -14 -45 -3 -23 14 -28 47 -9 66 18
18 56 14 68 -7z m130 0 c20 -39 -22 -82 -60 -61 -20 11 -25 35 -14 64 9 23 61
21 74 -3z m130 -1 c21 -38 -22 -80 -61 -60 -19 10 -27 59 -12 73 15 15 63 7
73 -13z m128 -17 c2 -24 -2 -34 -17 -43 -31 -16 -61 3 -61 39 0 36 8 43 45 39
26 -3 30 -8 33 -35z m120 25 c19 -19 14 -56 -8 -68 -38 -21 -80 22 -60 61 12
21 50 25 68 7z m-1381 -173 c11 -8 14 -20 9 -39 l-7 -27 -101 3 c-85 3 -103 6
-112 21 -9 15 -7 22 13 38 20 17 37 19 103 18 44 -2 87 -8 95 -14z m528 7 c36
-7 40 -10 40 -37 l0 -30 -221 -3 c-185 -2 -223 0 -233 12 -17 21 -5 54 22 59
37 7 350 6 392 -1z m-1587 -174 c27 -27 7 -78 -29 -78 -21 0 -49 26 -49 45 0
35 53 58 78 33z m130 0 c27 -27 7 -78 -29 -78 -21 0 -49 26 -49 45 0 35 53 58
78 33z m1666 -4 c9 -8 16 -22 16 -29 0 -19 -28 -45 -49 -45 -39 0 -57 60 -23
79 24 15 38 13 56 -5z m130 0 c19 -18 20 -28 6 -55 -21 -38 -80 -18 -80 28 0
38 47 55 74 27z m131 -8 c19 -29 10 -54 -21 -62 -30 -8 -54 11 -54 40 0 47 49
62 75 22z m128 6 c22 -24 11 -61 -19 -68 -30 -8 -54 11 -54 40 0 44 44 61 73
28z m127 4 c28 -35 -11 -93 -47 -70 -36 22 -23 84 17 84 10 0 23 -7 30 -14z
m128 2 c32 -32 1 -85 -42 -74 -31 8 -40 33 -21 62 17 26 44 31 63 12z m-1373
-33 l0 -30 -104 0 c-86 0 -106 3 -114 17 -8 12 -7 21 3 32 11 14 31 16 114 14
l101 -3 0 -30z m560 0 l0 -30 -226 -3 c-204 -2 -227 -1 -233 14 -4 9 -4 25 0
36 5 17 18 18 232 16 l227 -3 0 -30z m-1740 16 c3 -5 1 -12 -5 -16 -5 -3 -10
1 -10 9 0 18 6 21 15 7z m6071 -524 c14 -192 24 -350 21 -353 -5 -6 -197 23
-205 31 -3 3 28 167 69 366 54 264 76 353 81 332 4 -15 19 -185 34 -376z
m-4890 346 c11 -41 -16 -53 -112 -53 -83 0 -114 12 -114 44 0 28 25 36 122 36
97 0 98 0 104 -27z m562 -2 c7 -46 -15 -51 -234 -51 -171 0 -205 2 -218 16 -9
8 -16 21 -16 28 0 33 22 36 245 34 l220 -3 3 -24z m-564 -163 c8 -13 8 -23 0
-35 -9 -14 -28 -19 -90 -21 -43 -2 -89 -1 -100 2 -27 7 -37 31 -23 57 9 18 19
19 106 17 78 -2 98 -6 107 -20z m550 16 c19 -7 21 -45 4 -62 -9 -9 -73 -12
-225 -12 l-213 0 -12 25 c-8 19 -8 28 2 40 10 13 46 15 220 15 115 0 215 -3
224 -6z m-1553 -165 c15 -30 -6 -61 -39 -57 -23 3 -27 8 -30 40 -2 28 1 37 15
40 25 6 42 -1 54 -23z m130 0 c16 -32 -6 -61 -44 -57 -28 3 -32 7 -35 36 -3
26 1 34 20 41 28 10 45 4 59 -20z m130 0 c16 -32 -6 -61 -44 -57 -27 3 -33 8
-35 33 -6 51 54 69 79 24z m113 18 c12 -9 17 -23 14 -42 -2 -25 -8 -31 -33
-33 -19 -3 -33 2 -42 14 -17 24 -17 30 7 54 24 24 30 24 54 7z m1811 -37 c0
-12 -9 -29 -20 -36 -18 -12 -24 -11 -43 2 -12 8 -22 24 -22 34 0 10 10 26 22
34 19 13 25 14 43 2 11 -7 20 -24 20 -36z m129 17 c23 -36 -36 -74 -70 -47
-18 16 -18 39 2 61 18 20 51 13 68 -14z m127 2 c6 -13 6 -25 -1 -39 -18 -33
-80 -23 -80 13 0 49 58 68 81 26z m130 0 c16 -32 -6 -61 -44 -57 -28 3 -32 7
-35 34 -2 24 2 33 20 41 28 12 45 7 59 -18z m119 11 c24 -24 24 -30 7 -54 -9
-12 -23 -17 -42 -14 -25 2 -31 8 -33 33 -3 19 2 33 14 42 24 17 30 17 54 -7z
m140 -14 c12 -31 -6 -56 -40 -56 -46 0 -60 47 -23 76 19 16 53 5 63 -20z
m-2315 -16 c0 -32 -3 -35 -32 -38 -39 -4 -60 25 -43 59 9 15 19 19 43 17 29
-3 32 -6 32 -38z m5625 9 c101 -28 195 -79 283 -154 196 -167 331 -421 453
-854 34 -120 35 -126 23 -193 -7 -38 -15 -71 -19 -73 -4 -3 -20 42 -35 98
-113 424 -243 694 -423 876 -119 120 -259 192 -410 211 -35 5 -66 10 -68 13
-3 2 -7 28 -11 57 l-6 53 69 -6 c38 -4 103 -16 144 -28z m-5149 1 c21 -12 25
-40 7 -58 -8 -8 -46 -12 -103 -12 -89 0 -115 8 -115 36 0 32 31 44 111 44 44
0 89 -5 100 -10z m1043 -6 c9 -8 16 -21 16 -28 0 -32 -23 -36 -236 -36 -177 0
-215 3 -228 15 -15 16 -11 44 8 57 6 4 104 8 218 8 175 0 209 -2 222 -16z
m3699 -16 c-12 -63 -19 -82 -34 -89 -7 -4 -45 -23 -84 -41 -85 -40 -195 -144
-248 -235 -79 -136 -124 -314 -133 -528 -11 -235 21 -444 107 -710 63 -198 83
-287 129 -610 67 -464 99 -595 184 -760 54 -105 149 -203 237 -245 35 -16 69
-30 76 -30 31 0 18 -23 -33 -57 l-56 -37 -46 24 c-154 82 -270 246 -337 476
-39 134 -61 255 -100 544 -46 350 -75 493 -134 681 -172 542 -151 1063 54
1368 83 124 191 207 334 257 88 31 92 31 84 -8z m-4740 -150 c12 -6 17 -18 15
-36 l-3 -27 -104 0 c-89 0 -105 2 -115 18 -9 15 -7 22 13 38 20 16 38 19 100
18 42 -1 84 -6 94 -11z m1041 -4 c9 -8 16 -21 16 -28 0 -33 -23 -36 -242 -36
-191 0 -218 2 -226 16 -12 22 -4 52 17 57 9 3 107 5 218 6 171 1 204 -1 217
-15z m-1918 -152 c19 -13 23 -39 8 -61 -26 -36 -74 -21 -74 24 0 36 37 57 66
37z m138 -14 c13 -19 14 -25 2 -43 -26 -39 -76 -26 -76 19 0 46 48 62 74 24z
m124 10 c7 -7 12 -21 12 -33 0 -48 -49 -60 -76 -20 -16 24 -16 27 1 45 20 23
45 26 63 8z m130 0 c7 -7 12 -21 12 -33 0 -46 -48 -60 -74 -23 -20 28 -20 33
0 52 18 19 45 21 62 4z m1666 -4 c22 -21 20 -51 -4 -64 -29 -15 -59 -3 -66 26
-12 46 37 72 70 38z m137 -5 c17 -33 -4 -71 -38 -67 -36 4 -50 29 -35 62 15
33 56 35 73 5z m123 5 c9 -8 16 -22 16 -29 0 -7 -7 -21 -16 -29 -30 -30 -74
-13 -74 29 0 42 44 59 74 29z m122 8 c21 -13 25 -49 9 -66 -31 -30 -75 -13
-75 29 0 37 36 57 66 37z m130 0 c19 -13 23 -39 8 -61 -26 -36 -74 -21 -74 24
0 36 37 57 66 37z m138 -14 c13 -19 14 -25 2 -43 -26 -39 -76 -26 -76 19 0 46
48 62 74 24z m-1816 -30 c4 -37 -30 -50 -121 -46 -68 2 -107 18 -107 42 0 30
25 37 125 34 l100 -3 3 -27z m1036 9 c9 -15 7 -22 -13 -38 -21 -17 -40 -19
-211 -19 -206 0 -240 6 -240 43 0 13 3 27 7 31 4 3 106 5 226 4 200 -3 221 -5
231 -21z m3523 -174 c146 -299 246 -519 293 -636 l22 -57 -23 -53 c-20 -45
-23 -68 -24 -172 0 -66 3 -142 7 -169 l8 -48 -48 8 c-26 4 -123 8 -217 9
l-170 1 -38 99 c-21 55 -53 154 -70 220 -31 115 -32 127 -32 315 0 156 4 208
18 260 21 76 51 158 73 203 26 53 109 187 115 187 3 0 42 -75 86 -167z m853
125 c45 -48 125 -179 185 -303 79 -162 127 -290 195 -518 l54 -178 -29 -150
c-16 -82 -32 -154 -36 -160 -6 -10 -213 -1 -390 17 l-56 6 -13 52 c-22 88 -68
196 -126 300 l-56 100 27 106 c63 241 213 750 221 750 2 0 13 -10 24 -22z
m-6342 -136 c4 -37 -13 -43 -22 -9 -9 35 -7 49 7 45 6 -3 13 -19 15 -36z
m1668 -24 c5 -16 1 -27 -16 -40 -12 -10 -26 -18 -30 -18 -15 0 -40 31 -40 48
1 55 69 62 86 10z m-742 10 c8 -13 8 -23 0 -35 -17 -27 -193 -32 -211 -6 -17
22 -16 28 3 48 24 24 192 18 208 -7z m554 13 c8 -5 12 -21 10 -37 l-3 -29
-219 -3 c-153 -2 -223 1 -232 9 -19 16 -17 46 4 58 21 13 421 14 440 2z m312
-10 c15 -29 13 -39 -14 -56 -31 -21 -66 -5 -66 28 0 46 59 66 80 28z m130 0
c20 -39 -22 -82 -60 -61 -22 12 -27 49 -8 68 18 18 56 14 68 -7z m130 0 c20
-39 -22 -82 -60 -61 -20 11 -25 35 -14 64 9 23 61 21 74 -3z m128 -18 c2 -24
-2 -34 -17 -43 -31 -16 -61 3 -61 39 0 36 8 43 45 39 26 -3 30 -8 33 -35z
m126 21 c11 -29 6 -53 -14 -64 -38 -21 -80 22 -60 61 13 24 65 26 74 3z
m-1390 -167 c11 -8 17 -23 14 -38 -3 -24 -4 -24 -107 -24 -89 0 -105 2 -115
18 -9 15 -7 22 13 38 18 15 39 19 100 19 48 0 84 -5 95 -13z m560 0 c11 -8 17
-23 14 -38 l-3 -24 -221 -3 c-185 -2 -223 0 -233 12 -16 19 -6 53 17 59 9 3
105 5 213 6 146 1 200 -2 213 -12z m-3375 -124 c-176 -826 -366 -1717 -620
-2913 -60 -283 -137 -643 -170 -799 -58 -273 -60 -286 -45 -317 8 -18 28 -41
43 -51 25 -17 75 -18 780 -21 l752 -2 21 -30 21 -30 -861 0 -862 0 5 23 c3 12
53 256 111 542 58 286 164 810 236 1165 72 355 189 931 260 1280 71 349 156
769 190 932 33 164 60 300 60 303 0 3 22 5 49 5 l49 0 -19 -87z m3555 -49 c19
-18 20 -28 6 -55 -20 -37 -80 -18 -80 26 0 42 44 59 74 29z m130 0 c9 -8 16
-22 16 -29 0 -19 -28 -45 -49 -45 -39 0 -57 60 -23 79 24 15 38 13 56 -5z
m130 0 c9 -8 16 -22 16 -29 0 -7 -7 -21 -16 -29 -30 -30 -74 -13 -74 29 0 42
44 59 74 29z m130 0 c20 -20 20 -38 0 -59 -21 -21 -53 -16 -70 10 -12 18 -11
24 2 43 18 26 46 28 68 6z m124 4 c26 -26 8 -78 -27 -78 -23 0 -50 30 -44 48
15 41 46 55 71 30z m130 0 c27 -27 7 -78 -29 -78 -28 0 -51 29 -43 54 11 36
48 48 72 24z m-1373 -33 l0 -30 -104 0 c-86 0 -106 3 -114 17 -8 12 -7 21 3
32 11 14 31 16 114 14 l101 -3 0 -30z m560 0 l0 -30 -227 -3 c-221 -2 -227 -2
-233 18 -15 47 2 51 239 48 l221 -3 0 -30z m-571 -141 c22 -9 20 -51 -3 -64
-32 -17 -177 -13 -195 6 -19 19 -20 36 -4 52 13 13 173 17 202 6z m574 -22 c7
-49 -5 -52 -229 -52 -175 0 -210 2 -223 16 -9 8 -16 21 -16 28 0 33 22 36 245
34 l220 -3 3 -23z m-564 -164 c8 -13 8 -23 0 -35 -9 -14 -28 -19 -90 -21 -43
-2 -89 -1 -100 2 -27 7 -37 31 -23 57 9 18 19 19 106 17 78 -2 98 -6 107 -20z
m550 16 c9 -4 16 -18 16 -34 0 -16 -7 -30 -16 -34 -9 -3 -109 -6 -223 -6 -212
0 -231 3 -231 40 0 37 19 40 231 40 114 0 214 -3 223 -6z m-1176 -116 c26 -26
8 -78 -27 -78 -23 0 -50 30 -44 48 7 20 32 42 48 42 6 0 16 -5 23 -12z m123 2
c21 -12 25 -50 7 -68 -39 -39 -100 17 -63 58 21 23 29 24 56 10z m-231 -42 c0
-4 -4 -8 -10 -8 -5 0 -10 4 -10 9 0 5 -3 18 -6 28 -5 16 -4 16 10 -1 9 -11 16
-23 16 -28z m5830 -7 c117 -94 160 -425 73 -574 -35 -58 -107 -75 -158 -35
-29 23 -67 99 -79 158 -39 198 -49 290 -37 356 24 127 109 168 201 95z m-3922
7 c29 -29 -7 -82 -49 -71 -24 7 -36 48 -19 68 15 18 51 20 68 3z m132 -3 c16
-19 10 -45 -15 -61 -39 -26 -86 31 -53 64 16 16 53 15 68 -3z m134 -7 c16 -26
-4 -52 -42 -56 -26 -3 -32 1 -38 23 -4 15 -1 31 7 41 16 19 59 14 73 -8z m126
3 c20 -38 -16 -76 -57 -60 -17 6 -23 16 -23 37 0 36 6 42 41 42 18 0 32 -7 39
-19z m130 0 c20 -38 -16 -76 -57 -60 -17 6 -23 16 -23 37 0 36 6 42 41 42 18
0 32 -7 39 -19z m130 -1 c17 -33 -4 -62 -43 -58 -25 2 -33 8 -35 26 -6 37 5
52 37 52 20 0 34 -7 41 -20z m-1826 -22 c8 -13 8 -23 0 -35 -9 -15 -28 -19
-104 -21 -92 -3 -120 5 -120 34 0 7 7 20 16 29 24 24 192 18 208 -7z m1030 6
c19 -18 19 -20 6 -45 -10 -18 -23 -19 -230 -19 -199 0 -220 2 -228 18 -10 19
-5 43 12 54 6 4 104 8 218 8 175 0 209 -2 222 -16z m-1036 -168 c15 -9 16 -38
0 -54 -19 -19 -192 -16 -209 4 -18 22 0 48 37 54 43 7 158 5 172 -4z m1024 5
c22 -1 33 -38 18 -56 -10 -12 -52 -15 -231 -15 -203 0 -219 1 -228 19 -11 19
2 45 27 52 9 3 313 3 414 0z m-1638 -137 c11 -30 6 -53 -15 -64 -11 -7 -22
-10 -24 -8 -8 8 -22 77 -17 82 12 12 50 5 56 -10z m124 4 c19 -19 14 -56 -8
-68 -38 -21 -80 22 -60 61 12 21 50 25 68 7z m1674 -42 c14 -32 5 -54 -27 -62
-31 -8 -55 10 -55 40 0 49 62 65 82 22z m122 8 c9 -8 16 -22 16 -29 0 -7 -7
-21 -16 -29 -30 -30 -74 -13 -74 29 0 42 44 59 74 29z m130 0 c9 -8 16 -22 16
-29 0 -7 -7 -21 -16 -29 -30 -30 -74 -13 -74 29 0 42 44 59 74 29z m130 0 c9
-8 16 -22 16 -29 0 -7 -7 -21 -16 -29 -30 -30 -74 -13 -74 29 0 42 44 59 74
29z m122 8 c21 -14 25 -45 8 -63 -30 -33 -74 -18 -74 26 0 36 37 57 66 37z
m138 -14 c13 -19 14 -25 2 -43 -26 -39 -76 -26 -76 19 0 46 48 62 74 24z
m-1816 -30 c4 -36 -16 -45 -106 -47 -76 -2 -122 14 -122 42 0 31 24 38 125 35
l100 -3 3 -27z m1032 17 c16 -19 4 -52 -21 -58 -40 -11 -399 -8 -419 3 -19 10
-27 49 -13 63 3 4 104 7 223 7 178 0 220 -3 230 -15z m4045 -465 c15 0 49 12
76 27 27 14 50 24 52 22 2 -2 13 -38 26 -79 35 -111 101 -263 202 -462 49 -98
89 -179 89 -182 0 -4 -260 -194 -377 -275 -54 -37 -68 -43 -98 -38 -68 11
-184 76 -251 140 l-64 62 45 138 c50 152 130 446 164 602 12 55 24 106 27 113
2 8 18 -2 42 -27 27 -29 47 -41 67 -41z m-7995 -880 l0 -370 557 0 557 0 -210
-106 c-115 -58 -221 -112 -235 -120 -22 -12 -109 -14 -505 -12 l-479 3 0 400
c0 356 2 409 19 480 10 44 21 83 23 88 2 4 65 7 139 7 l134 0 0 -370z m1774
344 c19 -18 20 -28 6 -55 -21 -38 -80 -18 -80 28 0 38 47 55 74 27z m131 -4
c37 -41 -24 -97 -63 -58 -18 18 -15 55 6 67 25 15 37 13 57 -9z m130 -4 c21
-31 5 -66 -28 -66 -62 0 -62 88 0 90 7 0 20 -11 28 -24z m128 3 c19 -27 10
-58 -19 -65 -37 -9 -54 2 -54 35 0 48 48 67 73 30z m118 11 c23 -13 25 -52 4
-70 -8 -7 -25 -10 -40 -6 -20 5 -25 13 -25 36 0 17 7 33 18 39 21 13 20 13 43
1z m130 0 c38 -21 18 -80 -28 -80 -33 0 -49 35 -28 66 17 27 27 29 56 14z
m-1813 -32 c18 -18 14 -46 -7 -58 -11 -5 -54 -10 -96 -10 -42 0 -85 5 -96 10
-21 12 -25 40 -7 58 16 16 190 16 206 0z m1042 -7 c13 -25 13 -27 -6 -45 -13
-14 -48 -16 -224 -16 -176 0 -211 2 -224 16 -9 8 -16 21 -16 28 0 33 23 36
242 36 205 0 218 -1 228 -19z m-1036 -173 c8 -13 8 -23 0 -35 -9 -15 -28 -19
-104 -21 -95 -3 -120 5 -120 37 0 35 22 42 119 39 77 -2 96 -6 105 -20z m1030
6 c19 -18 19 -20 6 -45 -10 -18 -23 -19 -230 -19 -207 0 -220 1 -230 19 -13
25 -13 27 6 45 13 14 48 16 224 16 176 0 211 -2 224 -16z m146 -165 c14 -25
15 -25 -37 -33 -37 -5 -43 -4 -43 12 0 42 61 58 80 21z m129 2 c14 -25 5 -31
-41 -31 -24 0 -38 5 -38 13 0 37 62 51 79 18z m131 -1 c11 -20 -1 -60 -18 -60
-21 0 -62 27 -62 41 0 39 61 54 80 19z m117 12 c11 -7 16 -26 14 -49 -2 -21
-39 -35 -61 -23 -23 12 -28 65 -7 73 18 8 41 8 54 -1z m127 2 c24 -9 21 -61
-4 -74 -30 -16 -60 4 -60 40 0 35 26 49 64 34z m134 -6 c18 -18 14 -56 -7 -68
-29 -15 -39 -13 -56 14 -13 19 -14 29 -5 45 12 23 49 28 68 9z m-1822 -13 c12
-8 15 -19 10 -38 -6 -27 -7 -27 -104 -27 -63 0 -102 4 -110 12 -17 17 -15 45
6 57 24 15 177 12 198 -4z m1018 9 c30 -7 40 -29 26 -55 -10 -18 -22 -19 -232
-17 -195 3 -222 5 -231 20 -9 13 -7 22 7 37 17 18 32 20 212 21 106 0 204 -2
218 -6z m-1968 -325 c-1 -228 1 -285 12 -296 12 -11 93 -13 459 -13 245 1 447
-1 449 -3 2 -2 -35 -25 -82 -52 -96 -53 -119 -80 -105 -116 22 -57 114 -117
219 -144 88 -23 123 -14 347 83 39 17 90 35 113 40 51 12 49 21 21 -141 -30
-173 -15 -238 63 -278 29 -15 62 -22 109 -23 67 -1 69 0 112 42 l43 42 29 -30
c31 -32 106 -60 161 -60 20 0 58 -16 103 -44 82 -50 218 -98 352 -123 70 -13
147 -18 301 -18 l207 0 3 -75 3 -75 33 -3 c33 -3 33 -4 30 -50 -3 -46 -3 -47
-38 -47 -34 0 -35 1 -38 43 l-3 42 -172 -2 -172 -3 -3 -43 -3 -43 -42 3 c-41
3 -42 4 -47 43 l-5 40 -164 3 c-180 3 -181 3 -181 -55 0 -32 -2 -33 -39 -33
-40 0 -40 0 -43 43 l-3 42 -172 3 -171 2 -7 -28 c-3 -16 -5 -35 -3 -43 2 -10
-9 -15 -39 -17 l-42 -3 -3 43 -3 43 -170 0 -170 0 -5 -40 c-5 -39 -6 -40 -47
-43 l-42 -3 -3 43 -3 43 -170 0 -170 0 -5 -40 c-5 -39 -6 -40 -47 -43 l-42 -3
-3 43 -3 43 -170 0 -170 0 -3 -42 -3 -43 -44 0 -44 0 -3 43 -3 42 -170 0 -170
0 -3 -42 -3 -42 -107 -3 -107 -3 -3 -32 c-3 -30 -5 -31 -27 -21 -53 24 -53 30
49 508 53 245 133 621 178 837 46 215 86 389 89 387 3 -2 6 -130 5 -285z
m7531 44 c-4 -71 -7 -171 -7 -224 l0 -96 -92 -43 c-226 -104 -476 -213 -631
-275 -149 -59 -176 -67 -245 -69 -42 -2 -150 -16 -240 -31 -158 -28 -163 -28
-215 -12 -56 18 -177 101 -177 121 0 7 46 30 103 51 387 142 957 406 1357 629
74 41 139 75 144 75 5 1 6 -55 3 -126z m-3817 -77 c0 -4 -184 -49 -270 -65
-30 -6 -107 -15 -170 -21 -145 -12 -215 -25 -262 -49 l-38 -18 -33 41 c-31 37
-67 97 -67 111 0 3 189 5 420 5 231 0 420 -2 420 -4z m1228 -1186 c73 -36 132
-68 132 -72 0 -5 -72 -8 -159 -8 l-160 0 -3 -41 c-3 -42 -3 -42 -45 -43 l-42
-1 -3 40 -3 40 -170 0 -170 0 -3 -37 c-3 -38 -4 -38 -47 -38 -43 0 -44 0 -47
38 l-3 37 -170 0 -170 0 -5 -40 c-5 -39 -6 -40 -47 -43 l-42 -3 -3 43 -3 43
-170 0 -170 0 -3 -42 c-4 -59 -22 -54 -22 6 0 47 2 50 28 53 26 3 27 6 30 63
l3 60 352 -3 c194 -1 431 2 527 7 96 5 239 8 316 7 l141 -1 131 -65z m-1568
-120 c0 -37 -4 -50 -14 -50 -10 0 -16 14 -18 43 l-3 42 -160 5 -160 6 178 2
177 2 0 -50z m1775 13 c37 -18 49 -52 18 -54 -10 0 -28 -2 -40 -3 -20 -2 -23
2 -23 36 0 21 2 38 5 38 2 0 20 -8 40 -17z m-4915 -38 l0 -25 -135 0 -135 0 0
25 0 25 135 0 135 0 0 -25z m440 0 l0 -25 -135 0 -135 0 0 25 0 25 135 0 135
0 0 -25z m440 0 l0 -25 -135 0 -135 0 0 25 0 25 135 0 135 0 0 -25z m440 0 l0
-25 -135 0 -135 0 0 25 0 25 135 0 135 0 0 -25z m438 3 c-3 -23 -6 -23 -138
-23 -132 0 -135 0 -138 23 -3 22 -3 22 138 22 141 0 141 0 138 -22z m440 0
c-3 -22 -6 -23 -140 -26 l-138 -3 0 26 0 25 141 0 c140 0 140 0 137 -22z m438
0 c-3 -22 -7 -23 -139 -26 l-137 -3 0 26 0 25 140 0 c139 0 140 0 136 -22z
m434 -3 l0 -25 -135 0 -135 0 0 25 0 25 135 0 135 0 0 -25z m440 0 l0 -25
-135 0 -135 0 0 25 0 25 135 0 135 0 0 -25z m440 0 l0 -25 -135 0 -135 0 0 25
0 25 135 0 135 0 0 -25z m438 5 c-3 -20 -11 -21 -136 -23 -131 -2 -132 -2
-132 21 0 22 2 22 136 22 131 0 135 -1 132 -20z m442 0 c0 -19 -7 -20 -140
-20 -133 0 -140 1 -140 20 0 19 7 20 140 20 133 0 140 -1 140 -20z m430 -2 c0
-23 -1 -23 -132 -21 -126 2 -133 3 -136 22 -3 20 1 21 132 21 134 0 136 0 136
-22z m980 -133 l0 -65 -1115 0 -1115 0 0 65 0 65 1115 0 1115 0 0 -65z m6200
-270 l0 -165 -2457 2 -2458 3 -3 150 c-1 82 0 155 2 162 4 11 461 13 2461 13
l2455 0 0 -165z"/>
<path d="M10070 12890 c-10 -6 87 -10 293 -10 191 0 306 4 302 9 -8 13 -575
14 -595 1z"/>
<path d="M10060 12710 c0 -6 107 -10 300 -10 193 0 300 4 300 10 0 6 -107 10
-300 10 -193 0 -300 -4 -300 -10z"/>
<path d="M10060 12540 c0 -6 107 -10 300 -10 193 0 300 4 300 10 0 6 -107 10
-300 10 -193 0 -300 -4 -300 -10z"/>
<path d="M3275 12468 c-3 -7 -4 -382 -3 -833 l3 -820 1577 -3 1578 -2 5 22 c3
13 4 388 3 833 l-3 810 -1578 3 c-1257 2 -1579 0 -1582 -10z m3125 -968 l0
-650 -1545 0 -1545 0 0 650 0 650 1545 0 1545 0 0 -650z"/>
<path d="M3744 11827 c-2 -7 -3 -118 -2 -247 l3 -235 1104 -3 c877 -2 1106 0
1113 10 9 15 11 449 2 472 -6 14 -113 16 -1110 16 -884 0 -1106 -3 -1110 -13z
m2184 -235 l-3 -207 -1072 -3 -1073 -2 0 209 0 210 28 3 c15 2 498 2 1075 0
l1047 -2 -2 -208z"/>
<path d="M3940 11639 c0 -29 -1 -30 -22 -15 -28 20 -34 20 -42 1 -3 -9 5 -20
22 -29 l27 -14 -28 -13 c-30 -14 -33 -21 -13 -38 10 -9 16 -8 26 4 19 23 30
18 30 -16 0 -38 24 -34 28 5 3 27 4 27 29 11 21 -14 27 -15 34 -4 9 15 -7 39
-27 39 -22 0 -16 16 11 28 14 6 25 16 25 21 0 19 -21 22 -45 7 -25 -16 -25
-16 -25 14 0 20 -5 30 -15 30 -10 0 -15 -10 -15 -31z"/>
<path d="M4160 11648 c3 -39 1 -42 -19 -24 -11 10 -25 15 -30 11 -18 -10 -12
-33 9 -40 11 -3 20 -10 20 -15 0 -5 -9 -12 -20 -15 -22 -7 -24 -13 -12 -32 6
-10 12 -10 28 2 27 20 32 19 26 -10 -3 -21 0 -25 18 -25 18 0 21 4 18 25 -6
29 -1 31 23 9 10 -9 23 -13 28 -9 19 11 12 31 -16 44 l-28 13 28 14 c15 8 27
19 27 24 0 19 -22 21 -41 4 -20 -18 -22 -15 -19 24 1 16 -4 22 -20 22 -16 0
-21 -6 -20 -22z"/>
<path d="M4390 11639 c0 -31 0 -31 -25 -15 -30 20 -31 20 -39 1 -3 -9 5 -20
22 -29 l27 -14 -28 -13 c-30 -13 -31 -17 -17 -39 8 -12 11 -12 28 3 26 24 32
21 32 -13 0 -22 4 -28 15 -24 8 4 15 17 15 30 0 28 7 30 32 7 17 -15 20 -15
28 -3 9 14 -2 29 -34 45 -8 4 -8 6 0 10 31 15 43 31 35 44 -8 12 -13 12 -35
-3 -26 -16 -26 -16 -26 14 0 20 -5 30 -15 30 -10 0 -15 -10 -15 -31z"/>
<path d="M4610 11648 c3 -39 1 -42 -19 -24 -11 10 -25 15 -30 11 -18 -10 -12
-33 9 -40 11 -3 20 -10 20 -15 0 -5 -9 -12 -20 -15 -19 -6 -26 -25 -14 -38 4
-3 16 0 28 8 29 21 34 19 28 -10 -3 -21 0 -25 18 -25 18 0 21 4 18 25 -6 29
-1 31 23 9 10 -9 23 -13 28 -9 12 7 15 35 4 35 -5 0 -15 4 -22 9 -12 8 -11 13
10 30 19 15 21 22 12 32 -10 10 -17 9 -33 -6 -21 -19 -23 -16 -20 23 1 16 -4
22 -20 22 -16 0 -21 -6 -20 -22z"/>
<path d="M4838 11638 c5 -31 5 -31 -19 -15 -29 21 -35 21 -43 2 -3 -9 5 -20
22 -29 l27 -14 -28 -13 c-30 -13 -31 -17 -17 -39 8 -12 11 -12 28 3 26 24 32
21 32 -13 0 -22 4 -28 15 -24 8 4 15 17 15 30 0 28 7 30 32 7 17 -15 21 -15
29 -3 6 11 2 21 -16 36 l-26 20 25 12 c17 7 24 17 20 27 -8 19 -14 19 -42 -1
-21 -15 -22 -14 -22 15 0 23 -5 31 -18 31 -15 0 -18 -6 -14 -32z"/>
<path d="M5062 11640 c5 -34 2 -36 -23 -14 -10 9 -23 13 -28 9 -18 -10 -12
-33 9 -40 24 -7 27 -25 5 -25 -18 0 -30 -24 -20 -40 5 -8 14 -6 31 4 31 21 32
20 27 -8 -3 -15 1 -25 11 -29 20 -8 29 7 21 33 -8 24 2 26 26 4 10 -9 23 -13
28 -9 18 10 12 33 -9 40 -11 3 -20 11 -20 17 0 5 9 12 20 15 21 6 27 28 9 38
-5 4 -18 0 -28 -9 -25 -23 -31 -20 -24 14 5 26 3 30 -17 30 -19 0 -22 -4 -18
-30z"/>
<path d="M5288 11638 l5 -32 -26 17 c-32 21 -33 21 -41 2 -3 -9 5 -20 22 -29
l27 -14 -28 -13 c-30 -14 -33 -21 -13 -38 10 -9 16 -8 26 4 18 22 30 18 30
-10 0 -16 6 -25 15 -25 9 0 15 9 15 25 0 25 0 25 26 9 22 -15 27 -15 35 -3 8
13 -4 29 -35 44 -8 4 -8 6 0 10 31 15 43 31 35 44 -8 12 -13 12 -35 -3 -26
-16 -26 -16 -26 14 0 22 -5 30 -18 30 -15 0 -18 -6 -14 -32z"/>
<path d="M5510 11640 c0 -30 0 -30 -25 -14 -23 15 -25 15 -31 -1 -6 -16 2 -26
31 -39 9 -4 -8 -22 -29 -29 -5 -2 -6 -11 -3 -21 7 -17 9 -17 32 -2 32 21 33
20 27 -9 -3 -21 0 -25 18 -25 19 0 21 4 16 25 -7 29 0 32 25 9 10 -9 23 -13
28 -9 19 11 12 31 -16 45 l-28 13 28 11 c28 10 35 30 16 41 -5 4 -19 -1 -30
-11 -20 -18 -22 -15 -19 24 1 16 -4 22 -19 22 -17 0 -21 -6 -21 -30z"/>
<path d="M5738 11638 l5 -32 -26 17 c-32 21 -33 21 -41 2 -4 -10 3 -20 19 -27
32 -14 32 -24 0 -32 -27 -7 -30 -13 -15 -36 8 -12 11 -12 28 3 26 24 35 21 30
-8 -4 -19 -1 -25 13 -25 14 0 19 7 19 26 0 26 0 26 26 9 21 -14 28 -15 35 -4
9 15 -7 39 -27 39 -22 0 -16 16 11 28 16 7 23 17 19 27 -8 20 -23 19 -46 -2
-17 -15 -18 -14 -18 15 0 24 -4 32 -18 32 -15 0 -18 -6 -14 -32z"/>
<path d="M10208 12363 c83 -2 221 -2 305 0 83 1 15 3 -153 3 -168 0 -236 -2
-152 -3z"/>
<path d="M7524 11030 c-36 -14 -83 -70 -94 -110 -7 -26 -10 -258 -8 -692 3
-725 0 -689 70 -740 l33 -23 1215 -3 1216 -2 41 27 c72 46 71 36 78 605 4 278
3 581 -1 673 -8 185 -15 206 -83 252 l-34 23 -1206 -1 c-663 0 -1215 -4 -1227
-9z m2445 -44 c49 -26 65 -62 67 -153 l2 -83 -1290 0 -1290 0 3 84 c4 91 21
128 70 153 19 10 290 13 1217 13 1022 0 1197 -2 1221 -14z m61 -536 l0 -260
-1285 0 -1285 0 0 260 0 260 1285 0 1285 0 0 -260z m8 -575 c3 -312 0 -323
-78 -362 l-44 -23 -1156 0 c-655 0 -1172 4 -1194 10 -22 5 -53 23 -70 39 l-31
31 -3 290 -3 290 1288 -2 1288 -3 3 -270z"/>
<path d="M9316 9819 c-64 -56 -66 -142 -5 -193 29 -25 54 -31 108 -26 59 5
101 60 101 131 0 35 -6 48 -39 80 -34 34 -45 39 -84 39 -37 0 -53 -6 -81 -31z
m139 -34 c38 -37 35 -95 -6 -129 -34 -29 -43 -31 -87 -15 -36 12 -63 62 -55
102 12 63 102 89 148 42z"/>
<path d="M9645 9840 c-89 -36 -99 -181 -17 -224 82 -42 170 -8 192 75 14 52
-14 120 -59 143 -32 17 -84 20 -116 6z m108 -50 c49 -39 42 -116 -14 -145 -42
-22 -67 -18 -100 14 -80 80 25 201 114 131z"/>
<path d="M3410 10580 c0 -7 272 -10 795 -10 523 0 795 3 795 10 0 7 -272 10
-795 10 -523 0 -795 -3 -795 -10z"/>
<path d="M6425 10480 c-4 -7 97 -10 294 -10 194 0 301 4 301 10 0 6 -105 10
-294 10 -186 0 -297 -4 -301 -10z"/>
<path d="M3808 10403 c222 -2 582 -2 800 0 218 1 37 2 -403 2 -440 0 -619 -1
-397 -2z"/>
<path d="M6425 10300 c4 -6 115 -10 300 -10 185 0 296 4 300 10 4 7 -98 10
-300 10 -202 0 -304 -3 -300 -10z"/>
<path d="M3410 10230 c0 -7 272 -10 795 -10 523 0 795 3 795 10 0 7 -272 10
-795 10 -523 0 -795 -3 -795 -10z"/>
<path d="M6420 10130 c0 -6 107 -10 300 -10 193 0 300 4 300 10 0 6 -107 10
-300 10 -193 0 -300 -4 -300 -10z"/>
<path d="M3410 10060 c0 -7 272 -10 795 -10 523 0 795 3 795 10 0 7 -272 10
-795 10 -523 0 -795 -3 -795 -10z"/>
<path d="M6425 9960 c-4 -6 104 -10 294 -10 189 0 301 4 301 10 0 13 -587 13
-595 0z"/>
</g>
</svg>
