<svg xmlns="http://www.w3.org/2000/svg" version="1.1" xmlns:xlink="http://www.w3.org/1999/xlink" xmlns:svgjs="http://svgjs.dev/svgjs" width="1000" height="1000" viewBox="0 0 1000 1000"><rect width="1000" height="1000" fill="#ffffff"></rect><g transform="matrix(0.7,0,0,0.7,149.57605563665675,387.03415592464876)"><svg viewBox="0 0 396 128" data-background-color="#4b91f1" preserveAspectRatio="xMidYMid meet" height="323" width="1000" xmlns="http://www.w3.org/2000/svg" xmlns:xlink="http://www.w3.org/1999/xlink"><g id="tight-bounds" transform="matrix(1,0,0,1,0.24008861730862918,-0.04763188963082143)"><svg viewBox="0 0 395.52 128.0952743414444" height="128.0952743414444" width="395.52"><g><svg viewBox="0 0 395.52 128.0952743414444" height="128.0952743414444" width="395.52"><g><svg viewBox="0 0 395.52 128.0952743414444" height="128.0952743414444" width="395.52"><g id="textblocktransform"><svg viewBox="0 0 395.52 128.0952743414444" height="128.0952743414444" width="395.52" id="textblock"><g><svg viewBox="0 0 395.52 98.58793210745972" height="98.58793210745972" width="395.52"><path d="M394.594 21.145C392.735 10.912 387.435 8.067 387.435 8.067 371.165-2.473 350.86-0.202 332.619 1.313 300.414 1.374 268.339 3.626 236.208 4.833 168.767 5.017 100.749 1.988 33.643 9.459 27.339 11.751-6.54 9.909 1.121 22.455 3.129 27.674 10.456 33.466 10.232 38.255 11.236 39.095 12.631 37.171 13.226 38.378 15.309 41.632 18.711 40.097 21.501 42.021 17.614 47.159 20.403 51.436 23.062 55.918 18.377 57.085 12.371 56.532 9.675 60.401 9.396 63.204 7.89 62.672 6.235 62.55 5.026 62.468 2.59 62.775 2.999 63.655 4.394 66.663-1.594 68.403 2.162 71.35-0.422 74.543 3.948 77.306 3.353 80.765 3.278 81.461 3.687 82.054 4.338 82.218 7.22 83.098 3.018 84.817 3.464 86.68 33.029 99.41 65.104 90.609 95.394 96.463 103.259 92.37 97.346 97.916 100.489 97.057 102.943 96.054 104.728 100.208 107.499 97.855 107.927 97.179 107.276 95.583 108.8 95.89 109.6 96.054 110.307 96.013 110.418 95.071 110.586 93.659 109.117 94.539 108.726 93.802 112.947 90.077 111.906 98.939 115.866 98.571 115.68 97.486 114.528 95.931 116.889 96.136 119.232 94.58 119.306 93.291 121.389 96.79 121.463 97.548 121.835 98.08 122.43 98.448 128.938 94.641 135.409 99.799 142.233 98.08 146.417 96.197 150.433 99.103 154.672 98.387 156.16 97.814 157.666 96.79 159.098 98.51 176.632 98.878 195.319 97.343 211.943 98.571 256.364 96.279 303.835 99.513 350.674 96.483 361.719 95.317 373.192 93.659 383.958 92.329 383.958 92.329 392.679 88.686 392.679 72.312S394.538 57.985 394.817 44.948C395.096 31.911 396.398 31.379 394.538 21.145Z" opacity="1" fill="#000000" data-fill-palette-color="tertiary"></path><g transform="matrix(1,0,0,1,55.76832,26.068561146666667)"><svg width="283.98335999999995" viewBox="2.549999952316284 -34 268.9800109863281 44" height="46.45080981412639" data-palette-color="#4b91f1"><path d="M22.45 0L19.7 0 19.7-5.15 5.45-27.55 5.3-27.55 5.3 0 2.55 0 2.55-32.75 5.25-32.75 19.55-10.1 19.7-10.1 19.7-32.75 22.45-32.75 22.45 0ZM36.95-21.25L31.15-21.25 31.15-23.75 39.6-23.75 39.6-2.5 45.4-2.5 45.4 0 30.75 0 30.75-2.5 36.95-2.5 36.95-21.25ZM38.05-28.55Q37.15-28.55 36.52-29.18 35.9-29.8 35.9-30.78 35.9-31.75 36.52-32.33 37.15-32.9 38.05-32.9 38.95-32.9 39.52-32.35 40.1-31.8 40.1-30.8 40.1-29.8 39.52-29.18 38.95-28.55 38.05-28.55ZM53.8-23.75L56.35-23.75 56.45-21.75Q61.3-24.05 64.5-24.05 67.7-24.05 69.52-21.85 71.34-19.65 71.34-15.85L71.34-15.85 71.34 0 68.7 0 68.7-15.85Q68.7-18.3 67.5-19.9L67.5-19.9Q66.3-21.45 63.9-21.45 61.5-21.45 56.45-19.25L56.45-19.25 56.45 0 53.8 0 53.8-23.75ZM77.94-11.8Q77.94-24.05 87.49-24.05 97.04-24.05 97.04-11.8 97.04 0.45 87.49 0.45 77.94 0.45 77.94-11.8ZM87.49-21.45Q80.79-21.45 80.79-11.8 80.79-2.15 87.49-2.15 94.19-2.15 94.19-11.8 94.19-21.45 87.49-21.45ZM113.69-23.15L111.04-23.15 111.04-34 113.69-34 113.69-23.15ZM128.89-1.15L128.89-1.15 129.54-3.75Q134.49-2.1 137.19-2.1 139.89-2.1 141.36-3.28 142.84-4.45 142.84-6.4 142.84-8.35 141.66-9.28 140.49-10.2 136.79-11.05 133.09-11.9 131.24-13.5L131.24-13.5Q129.39-15 129.39-18 129.39-21 131.66-22.58 133.94-24.15 137.54-24.15 141.14-24.15 145.34-22.55L145.34-22.55 144.64-20.2Q140.39-21.6 137.79-21.6 135.19-21.6 133.69-20.7L133.69-20.7Q132.19-19.7 132.19-18 132.19-16.3 133.51-15.35 134.84-14.4 138.64-13.45 142.44-12.5 144.04-11.03 145.64-9.55 145.64-6.4 145.64-3.25 143.49-1.4L143.49-1.4Q141.39 0.45 137.49 0.45 133.59 0.45 128.89-1.15ZM185.58 0L178.33 0 178.33-32.75 186.03-32.75Q191.53-32.75 194.21-30.78 196.88-28.8 196.88-24.25L196.88-24.25Q196.88-18.55 191.33-16.85L191.33-16.85Q194.63-16.1 196.21-14.35 197.78-12.6 197.78-9.25L197.78-9.25Q197.78-3.95 194.78-1.98 191.78 0 185.58 0L185.58 0ZM194.88-9.25L194.88-9.25Q194.88-15.35 186.58-15.35L186.58-15.35 181.08-15.35 181.08-2.45 185.58-2.45Q190.23-2.45 192.56-3.93 194.88-5.4 194.88-9.25ZM191.38-29.4L191.38-29.4Q189.23-30.3 186.03-30.3L186.03-30.3 181.08-30.3 181.08-17.8 186.43-17.8Q189.58-17.8 191.78-19.23 193.98-20.65 194.03-24.45 194.08-28.25 191.38-29.4ZM211.38-30.75L205.43-30.7 205.38-33.15 214.03-33.2 214.03-2.5 220.13-2.5 220.13 0 205.23 0 205.23-2.5 211.38-2.5 211.38-30.75ZM227.93-11.8Q227.93-24.05 237.48-24.05 247.03-24.05 247.03-11.8 247.03 0.45 237.48 0.45 227.93 0.45 227.93-11.8ZM237.48-21.45Q230.78-21.45 230.78-11.8 230.78-2.15 237.48-2.15 244.18-2.15 244.18-11.8 244.18-21.45 237.48-21.45ZM271.38-23.75L271.38-5.75 271.53 1.15Q271.53 5.6 268.85 7.8 266.18 10 262.23 10 258.28 10 253.23 8L253.23 8 254.13 5.5Q259.08 7.4 262 7.4 264.93 7.4 266.9 5.88 268.88 4.35 268.88 1.2L268.88 1.2Q268.88 0.8 268.8-0.58 268.73-1.95 268.73-2.6L268.73-2.6Q265.08-0.05 261.93-0.05L261.93-0.05Q257.43-0.05 255-3.13 252.58-6.2 252.58-11.88 252.58-17.55 255.28-20.8 257.98-24.05 262.78-24.05L262.78-24.05Q265.43-24.05 268.73-22.3L268.73-22.3 268.83-23.75 271.38-23.75ZM255.43-11.93Q255.43-7.55 257.13-5.1 258.83-2.65 262.08-2.65 265.33-2.65 268.73-5.5L268.73-5.5 268.73-19.5Q265.63-21.45 262.88-21.45L262.88-21.45Q259.33-21.45 257.38-18.88 255.43-16.3 255.43-11.93Z" opacity="1" transform="matrix(1,0,0,1,0,0)" fill="#ffffff" class="undefined-text-0" data-fill-palette-color="quaternary" id="text-0"></path></svg></g></svg></g><g transform="matrix(1,0,0,1,75.54432,109.55385348513943)"><svg viewBox="0 0 244.43135999999998 18.54142085630498" height="18.54142085630498" width="244.43135999999998"><g transform="matrix(1,0,0,1,0,0)"><svg width="244.43135999999998" viewBox="0.699999988079071 -38.150001525878906 511.45001220703125 38.80000305175781" height="18.54142085630498" data-palette-color="#ffffff"><path d="M0.7-36.45L6-36.45 12.05-14.2Q12.45-12.8 12.78-11.38 13.1-9.95 13.45-8.25L13.45-8.25Q13.75-9.95 14.1-11.38 14.45-12.8 14.8-14.2L14.8-14.2 20.8-36.45 24.95-36.45 31-14Q31.35-12.7 31.68-11.28 32-9.85 32.35-8.25L32.35-8.25Q32.7-9.95 33.02-11.35 33.35-12.75 33.7-14.15L33.7-14.15 39.75-36.45 44-36.45 34.05 0.2 29.7 0.2 23.5-22.5Q23.2-23.6 22.93-24.75 22.65-25.9 22.4-27.3L22.4-27.3Q22.1-25.75 21.8-24.43 21.5-23.1 21.15-21.85L21.15-21.85 15.15 0.2 10.75 0.2 0.7-36.45ZM54.6-25.45L54.6-25.45Q57.7-25.45 59.77-24.18 61.85-22.9 62.9-20.68 63.95-18.45 63.95-15.6L63.95-15.6Q63.95-14.9 63.87-14.15 63.8-13.4 63.65-12.55L63.65-12.55 47.95-12.55Q47.95-8 50.02-5.5 52.1-3 55.5-3L55.5-3Q56.95-3 58.55-3.45 60.15-3.9 61.85-4.85L61.85-4.85 63.4-2.15Q61.7-0.75 59.4-0.05 57.1 0.65 54.9 0.65L54.9 0.65Q51 0.65 48.37-1.15 45.75-2.95 44.45-5.9 43.15-8.85 43.15-12.15L43.15-12.15Q43.15-14.7 43.87-17.05 44.6-19.4 46.05-21.33 47.5-23.25 49.62-24.35 51.75-25.45 54.6-25.45ZM54.25-22.1L54.25-22.1Q52.55-22.1 51.27-21.18 50-20.25 49.25-18.8 48.5-17.35 48.25-15.85L48.25-15.85 59.2-15.85Q59.3-17.8 58.7-19.2 58.1-20.6 56.97-21.35 55.85-22.1 54.25-22.1ZM75.3-33.35L75.3-33.35Q75.3-32.05 74.37-31.1 73.45-30.15 72.05-30.15L72.05-30.15Q70.75-30.15 69.82-31.1 68.9-32.05 68.9-33.35L68.9-33.35Q68.9-34.65 69.82-35.6 70.75-36.55 72.1-36.55L72.1-36.55Q73.4-36.55 74.35-35.6 75.3-34.65 75.3-33.35ZM69.25-24.85L74.4-24.85 74.4 0 69.85 0 69.85-21.95 69.25-24.85ZM80.69-24.75L85.59-25.3Q86.54-23.05 86.74-20.55L86.74-20.55Q88.04-22.6 90.24-23.95 92.44-25.3 94.94-25.3L94.94-25.3 93.94-20.6Q91.59-20.6 89.89-19.38 88.19-18.15 86.84-16.15L86.84-16.15 86.84 0 82.29 0 82.29-18.05Q82.29-19 82.14-20.28 81.99-21.55 81.64-22.75 81.29-23.95 80.69-24.75L80.69-24.75ZM109.04-25.4L109.04-25.4Q110.64-25.4 112.32-24.9 113.99-24.4 115.19-23.3L115.19-23.3Q115.14-24.05 115.12-24.73 115.09-25.4 115.09-26.05L115.09-26.05 115.09-35.25 114.39-38.15 119.59-38.15 119.59-7.15Q119.59-6.1 119.74-4.8 119.89-3.5 120.24-2.27 120.59-1.05 121.09-0.1L121.09-0.1 116.34 0.45Q116.04-0.35 115.79-1.2 115.54-2.05 115.44-2.85L115.44-2.85Q114.19-1.2 112.22-0.28 110.24 0.65 108.19 0.65L108.19 0.65Q105.59 0.65 103.62-0.45 101.64-1.55 100.37-3.43 99.09-5.3 98.44-7.58 97.79-9.85 97.79-12.2L97.79-12.2Q97.79-15.65 99.04-18.68 100.29-21.7 102.77-23.55 105.24-25.4 109.04-25.4ZM109.19-21.85L109.19-21.85Q107.34-21.85 106.07-21 104.79-20.15 104.04-18.75 103.29-17.35 102.97-15.73 102.64-14.1 102.64-12.5L102.64-12.5Q102.64-10.85 103.02-9.22 103.39-7.6 104.17-6.23 104.94-4.85 106.27-4.03 107.59-3.2 109.54-3.2L109.54-3.2Q111.19-3.2 112.64-4.15 114.09-5.1 115.09-6.35L115.09-6.35 115.09-14.7Q115.09-16.6 114.52-18.23 113.94-19.85 112.64-20.85 111.34-21.85 109.19-21.85ZM138.64-36.45L145.99-36.45 154.59-13.35Q155.09-12.05 155.49-10.78 155.89-9.5 156.29-7.95L156.29-7.95Q156.69-9.5 157.04-10.73 157.39-11.95 157.89-13.2L157.89-13.2 166.44-36.45 173.04-36.45 173.04 0 167.99 0 167.99-26.05Q167.99-26.95 168.06-27.8 168.14-28.65 168.19-29.65L168.19-29.65Q167.89-28.85 167.54-28 167.19-27.15 166.89-26.25L166.89-26.25 157.29 0.05 154.29 0.05 144.54-26.45Q144.24-27.25 143.91-28.1 143.59-28.95 143.34-29.65L143.34-29.65Q143.44-28.75 143.46-27.93 143.49-27.1 143.49-26.25L143.49-26.25 143.49 0 139.34 0 139.34-33.2 138.64-36.45ZM189.68-25.45L189.68-25.45Q193.63-25.45 195.68-23.33 197.73-21.2 197.73-17.25L197.73-17.25 197.73-5.15Q197.73-4 198.13-3.6 198.53-3.2 199.13-3.2L199.13-3.2Q199.58-3.2 200.08-3.33 200.58-3.45 201.03-3.65L201.03-3.65 201.93-0.8Q201.08-0.3 199.83 0.08 198.58 0.45 197.28 0.45L197.28 0.45Q195.88 0.45 194.83-0.28 193.78-1 193.48-2.95L193.48-2.95Q192.03-1.3 190.11-0.38 188.18 0.55 185.98 0.55L185.98 0.55Q183.03 0.55 181.06-1.18 179.08-2.9 179.08-5.95L179.08-5.95Q179.08-8.8 180.43-10.5 181.78-12.2 183.96-13.08 186.13-13.95 188.58-14.25 191.03-14.55 193.18-14.55L193.18-14.55 193.18-17.35Q193.18-19.4 192.33-20.7 191.48-22 189.13-22L189.13-22Q187.28-22 185.56-21.23 183.83-20.45 182.18-19.05L182.18-19.05 180.03-22.25Q182.13-23.85 184.61-24.65 187.08-25.45 189.68-25.45ZM193.18-9.6L193.18-11.1Q191.88-11.1 190.28-11 188.68-10.9 187.18-10.43 185.68-9.95 184.71-8.95 183.73-7.95 183.73-6.2L183.73-6.2Q183.73-4.65 184.83-3.93 185.93-3.2 187.48-3.2L187.48-3.2Q189.18-3.2 190.46-4.15 191.73-5.1 192.46-6.58 193.18-8.05 193.18-9.6L193.18-9.6ZM215.53-25.45L215.53-25.45Q217.43-25.45 219.38-24.83 221.33-24.2 223.13-22.95L223.13-22.95 220.73-19.85Q219.33-20.95 218.03-21.48 216.73-22 215.43-22L215.43-22Q213.88-22 212.66-21.28 211.43-20.55 210.51-19.25 209.58-17.95 209.11-16.23 208.63-14.5 208.63-12.45L208.63-12.45Q208.63-7.85 210.68-5.4 212.73-2.95 215.93-2.95L215.93-2.95Q217.38-2.95 218.76-3.38 220.13-3.8 221.63-4.7L221.63-4.7 223.03-1.85Q220.98-0.6 219.16 0.03 217.33 0.65 214.98 0.65L214.98 0.65Q211.63 0.65 209.11-1 206.58-2.65 205.16-5.63 203.73-8.6 203.73-12.6L203.73-12.6Q203.73-16.5 205.31-19.4 206.88-22.3 209.58-23.88 212.28-25.45 215.53-25.45ZM227.58-38.15L232.68-38.15 232.68-22.05Q234.28-23.45 236.13-24.48 237.98-25.5 240.18-25.5L240.18-25.5Q242.93-25.5 244.58-24.38 246.23-23.25 246.95-21.28 247.68-19.3 247.68-16.7L247.68-16.7 247.68 0 243.18 0 243.18-15.5Q243.18-16.95 242.95-18.35 242.73-19.75 241.93-20.68 241.13-21.6 239.23-21.6L239.23-21.6Q238.08-21.6 236.9-21.1 235.73-20.6 234.65-19.88 233.58-19.15 232.68-18.4L232.68-18.4 232.68 0 228.18 0 228.18-35.3 227.58-38.15ZM261.03-33.35L261.03-33.35Q261.03-32.05 260.1-31.1 259.18-30.15 257.78-30.15L257.78-30.15Q256.48-30.15 255.55-31.1 254.63-32.05 254.63-33.35L254.63-33.35Q254.63-34.65 255.55-35.6 256.48-36.55 257.83-36.55L257.83-36.55Q259.13-36.55 260.08-35.6 261.03-34.65 261.03-33.35ZM254.98-24.85L260.13-24.85 260.13 0 255.58 0 255.58-21.95 254.98-24.85ZM266.42-24.65L271.37-25.3Q271.72-24.45 271.95-23.58 272.17-22.7 272.27-21.8L272.27-21.8Q273.77-23.25 275.82-24.35 277.87-25.45 279.97-25.45L279.97-25.45Q282.77-25.45 284.42-24.33 286.07-23.2 286.82-21.23 287.57-19.25 287.57-16.65L287.57-16.65 287.57 0 283.02 0 283.02-15.45Q283.02-16.9 282.82-18.32 282.62-19.75 281.8-20.65 280.97-21.55 279.07-21.55L279.07-21.55Q277.97-21.55 276.75-21.08 275.52-20.6 274.45-19.88 273.37-19.15 272.57-18.35L272.57-18.35 272.57 0 268.07 0 268.07-17.65Q268.07-18.6 267.92-19.93 267.77-21.25 267.42-22.55 267.07-23.85 266.42-24.65L266.42-24.65ZM304.92-25.45L304.92-25.45Q308.02-25.45 310.1-24.18 312.17-22.9 313.22-20.68 314.27-18.45 314.27-15.6L314.27-15.6Q314.27-14.9 314.2-14.15 314.12-13.4 313.97-12.55L313.97-12.55 298.27-12.55Q298.27-8 300.35-5.5 302.42-3 305.82-3L305.82-3Q307.27-3 308.87-3.45 310.47-3.9 312.17-4.85L312.17-4.85 313.72-2.15Q312.02-0.75 309.72-0.05 307.42 0.65 305.22 0.65L305.22 0.65Q301.32 0.65 298.7-1.15 296.07-2.95 294.77-5.9 293.47-8.85 293.47-12.15L293.47-12.15Q293.47-14.7 294.2-17.05 294.92-19.4 296.37-21.33 297.82-23.25 299.95-24.35 302.07-25.45 304.92-25.45ZM304.57-22.1L304.57-22.1Q302.87-22.1 301.6-21.18 300.32-20.25 299.57-18.8 298.82-17.35 298.57-15.85L298.57-15.85 309.52-15.85Q309.62-17.8 309.02-19.2 308.42-20.6 307.3-21.35 306.17-22.1 304.57-22.1ZM328.32-25.45L328.32-25.45Q330.02-25.45 331.77-25.05 333.52-24.65 334.97-23.75L334.97-23.75 333.37-20.35Q332.32-21.2 330.97-21.65 329.62-22.1 328.32-22.1L328.32-22.1Q326.57-22.1 325.27-21.33 323.97-20.55 323.97-18.9L323.97-18.9Q323.97-17.15 325.12-16.3 326.27-15.45 327.92-14.7L327.92-14.7Q329.17-14.1 330.44-13.5 331.72-12.9 332.82-12.05 333.92-11.2 334.59-9.95 335.27-8.7 335.27-6.85L335.27-6.85Q335.27-4.3 333.99-2.63 332.72-0.95 330.69-0.15 328.67 0.65 326.37 0.65L326.37 0.65Q324.37 0.65 322.29 0.1 320.22-0.45 318.52-1.45L318.52-1.45 320.37-4.7Q321.57-3.85 323.04-3.28 324.52-2.7 325.97-2.7L325.97-2.7Q327.77-2.7 329.14-3.58 330.52-4.45 330.52-6.25L330.52-6.25Q330.52-7.45 329.77-8.25 329.02-9.05 327.87-9.68 326.72-10.3 325.47-10.85L325.47-10.85Q323.97-11.55 322.52-12.4 321.07-13.25 320.14-14.6 319.22-15.95 319.22-18.1L319.22-18.1Q319.22-20.55 320.54-22.18 321.87-23.8 323.94-24.63 326.02-25.45 328.32-25.45ZM361.81-25.45L361.81-25.45Q365.76-25.45 367.81-23.33 369.86-21.2 369.86-17.25L369.86-17.25 369.86-5.15Q369.86-4 370.26-3.6 370.66-3.2 371.26-3.2L371.26-3.2Q371.71-3.2 372.21-3.33 372.71-3.45 373.16-3.65L373.16-3.65 374.06-0.8Q373.21-0.3 371.96 0.08 370.71 0.45 369.41 0.45L369.41 0.45Q368.01 0.45 366.96-0.28 365.91-1 365.61-2.95L365.61-2.95Q364.16-1.3 362.24-0.38 360.31 0.55 358.11 0.55L358.11 0.55Q355.16 0.55 353.19-1.18 351.21-2.9 351.21-5.95L351.21-5.95Q351.21-8.8 352.56-10.5 353.91-12.2 356.09-13.08 358.26-13.95 360.71-14.25 363.16-14.55 365.31-14.55L365.31-14.55 365.31-17.35Q365.31-19.4 364.46-20.7 363.61-22 361.26-22L361.26-22Q359.41-22 357.69-21.23 355.96-20.45 354.31-19.05L354.31-19.05 352.16-22.25Q354.26-23.85 356.74-24.65 359.21-25.45 361.81-25.45ZM365.31-9.6L365.31-11.1Q364.01-11.1 362.41-11 360.81-10.9 359.31-10.43 357.81-9.95 356.84-8.95 355.86-7.95 355.86-6.2L355.86-6.2Q355.86-4.65 356.96-3.93 358.06-3.2 359.61-3.2L359.61-3.2Q361.31-3.2 362.59-4.15 363.86-5.1 364.59-6.58 365.31-8.05 365.31-9.6L365.31-9.6ZM376.16-24.75L381.06-25.3Q382.01-23.05 382.21-20.55L382.21-20.55Q383.51-22.6 385.71-23.95 387.91-25.3 390.41-25.3L390.41-25.3 389.41-20.6Q387.06-20.6 385.36-19.38 383.66-18.15 382.31-16.15L382.31-16.15 382.31 0 377.76 0 377.76-18.05Q377.76-19 377.61-20.28 377.46-21.55 377.11-22.75 376.76-23.95 376.16-24.75L376.16-24.75ZM404.66-25.45L404.66-25.45Q407.76-25.45 409.83-24.18 411.91-22.9 412.96-20.68 414.01-18.45 414.01-15.6L414.01-15.6Q414.01-14.9 413.93-14.15 413.86-13.4 413.71-12.55L413.71-12.55 398.01-12.55Q398.01-8 400.08-5.5 402.16-3 405.56-3L405.56-3Q407.01-3 408.61-3.45 410.21-3.9 411.91-4.85L411.91-4.85 413.46-2.15Q411.76-0.75 409.46-0.05 407.16 0.65 404.96 0.65L404.96 0.65Q401.06 0.65 398.43-1.15 395.81-2.95 394.51-5.9 393.21-8.85 393.21-12.15L393.21-12.15Q393.21-14.7 393.93-17.05 394.66-19.4 396.11-21.33 397.56-23.25 399.68-24.35 401.81-25.45 404.66-25.45ZM404.31-22.1L404.31-22.1Q402.61-22.1 401.33-21.18 400.06-20.25 399.31-18.8 398.56-17.35 398.31-15.85L398.31-15.85 409.26-15.85Q409.36-17.8 408.76-19.2 408.16-20.6 407.03-21.35 405.91-22.1 404.31-22.1ZM441.2-25.45L441.2-25.45Q443.1-25.45 445.05-24.83 447-24.2 448.8-22.95L448.8-22.95 446.4-19.85Q445-20.95 443.7-21.48 442.4-22 441.1-22L441.1-22Q439.55-22 438.33-21.28 437.1-20.55 436.18-19.25 435.25-17.95 434.78-16.23 434.3-14.5 434.3-12.45L434.3-12.45Q434.3-7.85 436.35-5.4 438.4-2.95 441.6-2.95L441.6-2.95Q443.05-2.95 444.43-3.38 445.8-3.8 447.3-4.7L447.3-4.7 448.7-1.85Q446.65-0.6 444.83 0.03 443 0.65 440.65 0.65L440.65 0.65Q437.3 0.65 434.78-1 432.25-2.65 430.83-5.63 429.4-8.6 429.4-12.6L429.4-12.6Q429.4-16.5 430.98-19.4 432.55-22.3 435.25-23.88 437.95-25.45 441.2-25.45ZM463.15 0.65L463.15 0.65Q459.5 0.65 456.98-1.15 454.45-2.95 453.18-5.9 451.9-8.85 451.9-12.25L451.9-12.25Q451.9-15.65 453.28-18.68 454.65-21.7 457.25-23.58 459.85-25.45 463.45-25.45L463.45-25.45Q467.15-25.45 469.68-23.68 472.2-21.9 473.48-18.95 474.75-16 474.75-12.55L474.75-12.55Q474.75-9.1 473.4-6.1 472.05-3.1 469.45-1.23 466.85 0.65 463.15 0.65ZM463.2-2.7L463.2-2.7Q465.1-2.7 466.38-3.6 467.65-4.5 468.43-5.98 469.2-7.45 469.53-9.15 469.85-10.85 469.85-12.4L469.85-12.4Q469.85-14 469.58-15.7 469.3-17.4 468.58-18.85 467.85-20.3 466.58-21.2 465.3-22.1 463.4-22.1L463.4-22.1Q461.5-22.1 460.23-21.18 458.95-20.25 458.2-18.78 457.45-17.3 457.1-15.63 456.75-13.95 456.75-12.4L456.75-12.4Q456.75-10.9 457.08-9.2 457.4-7.5 458.13-6.03 458.85-4.55 460.1-3.63 461.35-2.7 463.2-2.7ZM490 0.65L490 0.65Q486.35 0.65 483.82-1.15 481.3-2.95 480.02-5.9 478.75-8.85 478.75-12.25L478.75-12.25Q478.75-15.65 480.12-18.68 481.5-21.7 484.1-23.58 486.7-25.45 490.3-25.45L490.3-25.45Q494-25.45 496.52-23.68 499.05-21.9 500.32-18.95 501.6-16 501.6-12.55L501.6-12.55Q501.6-9.1 500.25-6.1 498.9-3.1 496.3-1.23 493.7 0.65 490 0.65ZM490.05-2.7L490.05-2.7Q491.95-2.7 493.22-3.6 494.5-4.5 495.27-5.98 496.05-7.45 496.37-9.15 496.7-10.85 496.7-12.4L496.7-12.4Q496.7-14 496.42-15.7 496.15-17.4 495.42-18.85 494.7-20.3 493.42-21.2 492.15-22.1 490.25-22.1L490.25-22.1Q488.35-22.1 487.07-21.18 485.8-20.25 485.05-18.78 484.3-17.3 483.95-15.63 483.6-13.95 483.6-12.4L483.6-12.4Q483.6-10.9 483.92-9.2 484.25-7.5 484.97-6.03 485.7-4.55 486.95-3.63 488.2-2.7 490.05-2.7ZM506.95-38.15L512.15-38.15 512.15 0 507.6 0 507.6-35.3 506.95-38.15Z" opacity="1" transform="matrix(1,0,0,1,0,0)" fill="#000000" class="undefined-text-1" data-fill-palette-color="secondary" id="text-1"></path></svg></g></svg></g></svg></g></svg></g><g></g></svg></g><defs></defs></svg><rect width="395.52" height="128.0952743414444" fill="none" stroke="none" visibility="hidden"></rect></g></svg></g></svg>